#N canvas 332 286 737 580 10;
#X msg 68 52 devices;
#X msg 141 78 close;
#X obj 274 407 osc~;
#X obj 267 498 dac~;
#X msg 346 37 pinMode 7 input;
#X obj 250 13 loadbang;
#X obj 34 188 route analog digital;
#X obj 32 218 route 0 1;
#X floatatom 24 258 5 0 0 0 - - -;
#X floatatom 63 259 5 0 0 0 - - -;
#X obj 110 217 route 7;
#X obj 116 260 tgl 15 0 empty empty empty 17 7 0 10 -262144 -1 -1 0
1;
#X obj 272 445 *~ 0.5;
#X obj 227 321 * 440;
#X obj 208 356 + 0;
#X obj 71 293 * 500;
#X obj 72 319 + 100;
#X msg 125 52 open 2;
#X msg 361 58 pinMode 9 output;
#X msg 373 82 pinMode 10 output;
#X msg 386 106 pinMode 13 output;
#X msg 431 153 digital 13 \$1;
#X obj 523 154 tgl 15 0 empty empty empty 17 7 0 10 -262144 -1 -1 0
1;
#X obj 527 187 tgl 15 0 empty empty empty 17 7 0 10 -262144 -1 -1 0
1;
#X obj 543 227 tgl 15 0 empty empty empty 17 7 0 10 -262144 -1 -1 0
1;
#X msg 435 186 digital 9 \$1;
#X msg 451 226 digital 10 \$1;
#X obj 59 154 arduino 2;
#X msg 288 212 analogIns 0 1;
#X msg 308 233 analogIns 1 1;
#X connect 0 0 27 0;
#X connect 1 0 27 0;
#X connect 2 0 12 0;
#X connect 4 0 27 0;
#X connect 5 0 4 0;
#X connect 5 0 18 0;
#X connect 5 0 19 0;
#X connect 5 0 28 0;
#X connect 5 0 29 0;
#X connect 5 0 20 0;
#X connect 6 0 7 0;
#X connect 6 1 10 0;
#X connect 7 0 8 0;
#X connect 7 1 9 0;
#X connect 8 0 12 1;
#X connect 9 0 15 0;
#X connect 10 0 11 0;
#X connect 11 0 13 0;
#X connect 12 0 3 0;
#X connect 12 0 3 1;
#X connect 13 0 14 1;
#X connect 14 0 2 0;
#X connect 15 0 16 0;
#X connect 16 0 14 0;
#X connect 17 0 27 0;
#X connect 18 0 27 0;
#X connect 19 0 27 0;
#X connect 20 0 27 0;
#X connect 21 0 27 0;
#X connect 22 0 21 0;
#X connect 23 0 25 0;
#X connect 24 0 26 0;
#X connect 25 0 27 0;
#X connect 26 0 27 0;
#X connect 27 0 6 0;
#X connect 28 0 27 0;
#X connect 29 0 27 0;
